<?xml version="1.0" encoding="utf-8"?>
<!-- Generator: Adobe Illustrator 28.1.0, SVG Export Plug-In . SVG Version: 6.00 Build 0)  -->
<svg version="1.1" id="Layer_1" xmlns="http://www.w3.org/2000/svg" xmlns:xlink="http://www.w3.org/1999/xlink" x="0px" y="0px"
	 viewBox="0 0 4181 5231" style="enable-background:new 0 0 4181 5231;" xml:space="preserve">
<style type="text/css">
	.st0{fill:#A7A7A7;}
	.st1{fill:#D7D7D7;}
	.st2{fill-rule:evenodd;clip-rule:evenodd;fill:#D7D7D7;}
	.st3{fill-rule:evenodd;clip-rule:evenodd;}
	.st4{fill:#666666;}
	.st5{fill-rule:evenodd;clip-rule:evenodd;fill:#333333;}
	.st6{fill:#999999;}
	.st7{fill:#808080;}
	.st8{fill:#FFFFFF;}
	.st9{fill-rule:evenodd;clip-rule:evenodd;fill:#FFFFFF;}
	.st10{fill:#333333;}
	.st11{fill-rule:evenodd;clip-rule:evenodd;fill:#666666;}
	.st12{fill-rule:evenodd;clip-rule:evenodd;fill:#888888;}
	.st13{fill:#C5C5C5;}
</style>
<path class="st0" d="M0,0h4181v2812.5H0V0z"/>
<rect x="-0.1" y="2812.5" class="st1" width="4181.1" height="2418.5"/>
<path class="st2" d="M709.7,2288H410.3v101.9h-149v203.8h597.4v-203.8h-149V2288z"/>
<path class="st3" d="M123.4,2491.8h873.3v203.8h-138v101.9H746.9l62.4,232.9h38v19.6h-76v-19.6H789l-62.4-232.9h-16.9v100.9H410.3
	v-100.9h-16.9L331,3030.4h17.7v19.6h-76v-19.6h38l62.4-232.9H261.3v-101.9h-138V2491.8z"/>
<path class="st4" d="M410.3,3146.3h299.4l-78.4-348.8H488.7L410.3,3146.3z"/>
<path class="st5" d="M596.8,2545.6l62.4,62.4l-36.7,36.8l36.7,36.8l-62.4,62.4L560,2707l-36.7,36.8l-62.4-62.4l36.7-36.8l-36.7-36.8
	l62.4-62.4l36.7,36.8L596.8,2545.6z M635.5,2607.9l-25,25l-38.8-38.8l24.9-25L635.5,2607.9z M598.8,2644.7l-38.8-38.8l-38.8,38.8
	l38.8,38.8L598.8,2644.7z M523.3,2569.1l24.9,25l-38.8,38.8l-24.9-25L523.3,2569.1z M484.5,2681.4l24.9-24.9l38.8,38.8l-24.9,24.9
	L484.5,2681.4z M610.6,2656.5l-38.8,38.8l25,24.9l38.8-38.8L610.6,2656.5z M574.1,2630.5h-28.3v28.3h28.3V2630.5z"/>
<path class="st6" d="M103.4,3956.3h293.4v293.4H103.4V3956.3z M0,5028.5h247.7V5231H0V5028.5z M3648.5,4080h163.1v163.1h-163.1V4080
	z M3384.7,3542.5h163.1v163.1h-163.1V3542.5z"/>
<path class="st7" d="M462.7,4189h176.4v176.4H462.7V4189z M265.2,3588.8h170.8v170.8H265.2V3588.8z M3900.1,4189h163.1v163.1h-163.1
	V4189z M3648.5,4754.1h163.1v163.1h-163.1V4754.1z M2484.3,4413.4h163.1V4525h-163.1V4413.4z M2321.1,4946.6h163.1v111.6h-163.1
	V4946.6z M2205.6,4304h109.7v109.7h-109.7V4304z M941.8,4754.1h109.7v109.7H941.8V4754.1z M4008.9,3705.6H4181V3999h-172.1V3705.6z"
	/>
<path d="M2276.4,2036l-185.9-255l-185.9,255h-682.3v1736.3h1736.3V2036H2276.4z"/>
<rect x="1794.7" y="3226" class="st8" width="591.7" height="159.4"/>
<path class="st9" d="M1794.7,3385.4v123.4H1918H2263h123.4v-123.4V3226H2263v159.4H1918V3226h-123.4V3385.4z"/>
<path class="st10" d="M1385.1,3058.6h246.8v246.8h-246.8V3058.6z M2549.1,3058.6v246.8h246.8v-246.8H2549.1z"/>
<path class="st4" d="M2003.2,2955.1l87.2-87.2l87.2,87.2l-87.2,87.2L2003.2,2955.1z"/>
<path class="st8" d="M2317.5,2704.3v-123.4v-123.4h123.4h123.4v246.8H2317.5z"/>
<path class="st6" d="M2379.2,2519.2h123.4v123.4h-123.4V2519.2z"/>
<path class="st8" d="M1645.5,2704.3v-123.4v-123.4h123.4h123.4v246.8H1645.5z"/>
<path class="st6" d="M1707.2,2519.2h123.4v123.4h-123.4V2519.2z"/>
<path class="st5" d="M2317.5,2437.5h246.8v20h-246.8V2437.5z"/>
<path class="st5" d="M1645.5,2437.5h246.8v20h-246.8V2437.5z"/>
<path class="st5" d="M2317.5,2704.3h246.8v20h-246.8V2704.3z"/>
<path class="st5" d="M1645.5,2704.3h246.8v20h-246.8V2704.3z"/>
<path class="st11" d="M2290.9,2301.9h300v40h-300V2301.9z"/>
<path class="st11" d="M1618.9,2301.9h300v40h-300V2301.9z"/>
<path class="st3" d="M2178.6,1300.6l149.5,149.5l-88.1,88.1l88.1,88.1l-149.5,149.5l-88.1-88.1l-88.1,88.1l-149.5-149.5l88.1-88.1
	l-88.1-88.1l149.5-149.5l88.1,88.1L2178.6,1300.6z M2271.6,1450.2l-59.8,59.8l-93-92.9l59.8-59.8L2271.6,1450.2z M2183.5,1538.3
	l-93-93l-93,93l93,92.9L2183.5,1538.3z M2002.4,1357.2l59.8,59.8l-93,92.9l-59.8-59.8L2002.4,1357.2z M1909.4,1626.4l59.8-59.8
	l93,93l-59.8,59.8L1909.4,1626.4z M2211.7,1566.5l-93,93l59.8,59.8l93-93L2211.7,1566.5z M2124.4,1504.4h-67.8v67.8h67.8V1504.4z"/>
<path class="st12" d="M4181,3.3h-319.1v68h-47V344h-53v274.3h-64v274.3h-68v274.3h-64v274.3h-68v274.3h-64v274.3h-68v274.3h-64
	v548.6h879.2L4181,3.3z"/>
<polygon class="st6" points="4181.1,877.4 4164.9,877.4 4164.9,1051.2 4108.9,1051.2 4108.9,1227.6 4055.9,1227.6 4055.9,1404.1 
	3991.9,1404.1 3991.9,1580.5 3923.9,1580.5 3923.9,1753.9 3859.9,1753.9 3859.9,1930.3 3791.9,1930.3 3791.9,2106.8 3727.9,2106.8 
	3727.9,2283.2 3659.9,2283.2 3659.9,2459.6 3595.9,2459.6 3595.9,2812.5 4181.1,2812.5 "/>
<path class="st2" d="M913.6,933.3H437.5v126h-144v252h764.1v-252h-144V933.3z M1883.6,362.2h-476.1v126h-144v252h764.1v-252h-144
	V362.2z M4181,740.2h-402v205.3h-296v410.7h698V740.2z"/>
<path class="st1" d="M2386.3,0l866,0v634h-866V0z"/>
<path class="st13" d="M2532.6,0h573.5v487.8h-573.5V0z"/>
</svg>
