<?xml version="1.0" encoding="utf-8"?>
<!-- Generator: Adobe Illustrator 28.1.0, SVG Export Plug-In . SVG Version: 6.00 Build 0)  -->
<svg version="1.1" id="Layer_1" xmlns="http://www.w3.org/2000/svg" xmlns:xlink="http://www.w3.org/1999/xlink" x="0px" y="0px"
	 viewBox="0 0 24 19.1" style="enable-background:new 0 0 24 19.1;" xml:space="preserve">
<style type="text/css">
	.st0{fill:#FFFFFF;}
	.st1{fill:#B5B900;}
</style>
<polygon points="22,7 22,2 18,2 18,0 6,0 6,2 2,2 2,7 0,7 0,13 6.8,13 6.8,14.9 8.8,14.9 8.8,17.1 12.8,17.1 12.8,19.1 18,19.1 
	18,17.1 22,17.1 22,14.9 24,14.9 24,13 24,7 "/>
<polygon class="st0" points="20,13 20,15.1 16,15.1 16,17.1 14.8,17.1 14.8,15.1 10.8,15.1 10.8,13 9,13 9,11 2,11 2,9 4,9 4,4 8,4 
	8,2 16,2 16,4 20,4 20,9 22,9 22,13 "/>
<polygon points="12.4,10.6 12.4,6.6 16.4,6.6 16.4,8.6 14.4,8.6 14.4,10.6 "/>
<polygon points="18.7,10.1 18.7,14.1 14.7,14.1 14.7,12.1 16.7,12.1 16.7,10.1 "/>
<polygon points="6.7,8.3 6.7,6.3 8.7,6.3 8.7,4.3 10.7,4.3 10.7,8.3 "/>
<polygon points="31.8,25.4 31.8,25 31.4,25 31.4,24.3 26.9,24.3 26.9,25.6 26,25.6 26,24.8 21.8,24.8 21.8,21.3 21.6,21.3 
	21.6,20.8 14.2,20.8 14.2,21.3 13.5,21.3 13.5,21.7 12.7,21.7 12.7,22.2 12,22.2 12,22.4 0.3,22.4 0.3,22.8 -0.7,22.8 -0.7,23.3 
	-1.4,23.3 -1.4,23.7 -1.6,23.7 -1.6,24.3 -2,24.3 -2,31.4 -1.6,31.4 -1.6,32 -1.4,32 -1.4,32.4 -0.7,32.4 -0.7,32.9 0.3,32.9 
	0.3,33.3 3.6,33.3 3.6,38.9 3.8,38.9 3.8,39.3 4.7,39.3 4.7,39.8 10.3,39.8 10.3,39.3 11.2,39.3 11.2,38.9 11.4,38.9 11.4,33.3 
	12,33.3 12,33.5 12.7,33.5 12.7,34 13.5,34 13.5,34.4 14.2,34.4 14.2,34.9 21.6,34.9 21.6,34.4 21.8,34.4 21.8,30.9 26,30.9 
	26,30.1 26.9,30.1 26.9,31.4 31.4,31.4 31.4,30.8 31.8,30.8 31.8,30.4 32.3,30.4 32.3,25.4 "/>
<polygon class="st1" points="-14.9,20.4 -14.9,24.4 -18.9,24.4 -18.9,22.4 -16.9,22.4 -16.9,20.4 "/>
<polygon class="st0" points="29.8,27.4 29.8,27 29.3,27 29.3,26.4 28.9,26.4 28.9,27.6 24,27.6 24,26.9 19.7,26.9 19.7,23.3 
	19.5,23.3 19.5,22.9 16.3,22.9 16.3,23.3 15.5,23.3 15.5,23.8 14.8,23.8 14.8,24.2 14.1,24.2 14.1,24.4 2.3,24.4 2.3,24.9 1.4,24.9 
	1.4,25.3 0.7,25.3 0.7,25.8 0.4,25.8 0.4,26.4 0,26.4 0,29.3 0.4,29.3 0.4,29.9 0.7,29.9 0.7,30.4 1.4,30.4 1.4,30.8 2.3,30.8 
	2.3,31.3 5.7,31.3 5.7,36.8 5.9,36.8 5.9,37.3 6.8,37.3 6.8,37.7 8.2,37.7 8.2,37.3 9.1,37.3 9.1,36.8 9.3,36.8 9.3,31.3 14.1,31.3 
	14.1,31.5 14.8,31.5 14.8,31.9 15.5,31.9 15.5,32.4 16.3,32.4 16.3,32.8 19.5,32.8 19.5,32.4 19.7,32.4 19.7,28.8 24,28.8 24,28.1 
	28.9,28.1 28.9,29.3 29.3,29.3 29.3,28.7 29.8,28.7 29.8,28.3 30.2,28.3 30.2,27.4 "/>
</svg>
