<?xml version="1.0" encoding="utf-8"?>
<!-- Generator: Adobe Illustrator 28.1.0, SVG Export Plug-In . SVG Version: 6.00 Build 0)  -->
<svg version="1.1" id="Layer_1" xmlns="http://www.w3.org/2000/svg" xmlns:xlink="http://www.w3.org/1999/xlink" x="0px" y="0px"
	 viewBox="0 0 33.5 18.9" style="enable-background:new 0 0 33.5 18.9;" xml:space="preserve">
<style type="text/css">
	.st0{fill:#FFFFFF;}
</style>
<polygon points="33,4.5 33,4.1 32.6,4.1 32.6,3.5 28.1,3.5 28.1,4.8 27.2,4.8 27.2,4 23.8,4 23.8,0.4 23.6,0.4 23.6,0 16.3,0 
	16.3,0.4 15.5,0.4 15.5,0.9 14.8,0.9 14.8,1.3 14.1,1.3 14.1,1.6 2.3,1.6 2.3,2 1.4,2 1.4,2.4 0.7,2.4 0.7,2.9 0.4,2.9 0.4,3.5 
	0,3.5 0,10.5 0.4,10.5 0.4,11.2 0.7,11.2 0.7,11.6 1.4,11.6 1.4,12.1 2.3,12.1 2.3,12.5 5.7,12.5 5.7,18 5.9,18 5.9,18.5 6.8,18.5 
	6.8,18.9 12.3,18.9 12.3,18.5 13.2,18.5 13.2,18 13.4,18 13.4,12.5 14.1,12.5 14.1,12.7 14.8,12.7 14.8,13.2 15.5,13.2 15.5,13.6 
	16.3,13.6 16.3,14.1 23.6,14.1 23.6,13.6 23.8,13.6 23.8,10 27.2,10 27.2,9.3 28.1,9.3 28.1,10.5 32.6,10.5 32.6,9.9 33,9.9 33,9.5 
	33.5,9.5 33.5,4.5 "/>
<polygon class="st0" points="31,6.6 31,6.2 30.5,6.2 30.5,5.6 30.1,5.6 30.1,6.8 25.2,6.8 25.2,6.1 21.8,6.1 21.8,2.5 21.6,2.5 
	21.6,2 18.3,2 18.3,2.5 17.6,2.5 17.6,2.9 16.8,2.9 16.8,3.4 16.1,3.4 16.1,3.6 4.4,3.6 4.4,4.1 3.4,4.1 3.4,4.5 2.7,4.5 2.7,4.9 
	2.5,4.9 2.5,5.6 2,5.6 2,8.5 2.5,8.5 2.5,9.1 2.7,9.1 2.7,9.6 3.4,9.6 3.4,10 4.4,10 4.4,10.4 7.7,10.4 7.7,16 7.9,16 7.9,16.4 
	8.8,16.4 8.8,16.9 10.3,16.9 10.3,16.4 11.2,16.4 11.2,16 11.4,16 11.4,10.4 16.1,10.4 16.1,10.7 16.8,10.7 16.8,11.1 17.6,11.1 
	17.6,11.6 18.3,11.6 18.3,12 21.6,12 21.6,11.6 21.8,11.6 21.8,8 25.2,8 25.2,7.2 30.1,7.2 30.1,8.5 30.5,8.5 30.5,7.9 31,7.9 
	31,7.5 31.4,7.5 31.4,6.6 "/>
<rect x="14.1" y="3.4" width="2" height="7.3"/>
<rect x="6.6" y="2.5" transform="matrix(6.123234e-17 -1 1 6.123234e-17 1.042 15.0788)" width="2.9" height="9.1"/>
<rect x="8.5" y="10.4" transform="matrix(-1 -1.224647e-16 1.224647e-16 -1 19.1138 26.3696)" width="2" height="5.5"/>
<rect x="18.9" y="3.8" width="2" height="6.9"/>
</svg>
